<svg xmlns="http://www.w3.org/2000/svg" viewBox="0 0 512 512">
  <rect width="512" height="512" rx="105" fill="#111827"/>
  <circle cx="256" cy="200" r="133" fill="white"/>
  <line x1="256" y1="75" x2="256" y2="98" stroke="#cbd5e1" stroke-width="10" stroke-linecap="round"/>
  <line x1="381" y1="200" x2="358" y2="200" stroke="#cbd5e1" stroke-width="10" stroke-linecap="round"/>
  <line x1="256" y1="325" x2="256" y2="302" stroke="#cbd5e1" stroke-width="10" stroke-linecap="round"/>
  <line x1="131" y1="200" x2="154" y2="200" stroke="#cbd5e1" stroke-width="10" stroke-linecap="round"/>
  <line x1="256" y1="200" x2="200" y2="152" stroke="#0f172a" stroke-width="14" stroke-linecap="round"/>
  <polyline points="166,210 220,268 352,148" fill="none" stroke="#cbd5e1" stroke-width="24" stroke-linecap="round" stroke-linejoin="round"/>
  <circle cx="256" cy="200" r="12" fill="#cbd5e1"/>
  <path d="M218,370 Q256,347 294,370" fill="none" stroke="white" stroke-width="5.5" stroke-linecap="round" opacity="0.85"/>
  <path d="M208,383 Q256,358 304,383" fill="none" stroke="white" stroke-width="5.5" stroke-linecap="round" opacity="0.75"/>
  <path d="M212,396 Q256,372 300,396" fill="none" stroke="white" stroke-width="5.5" stroke-linecap="round" opacity="0.65"/>
  <path d="M221,409 Q256,388 291,409" fill="none" stroke="white" stroke-width="5.5" stroke-linecap="round" opacity="0.55"/>
  <path d="M234,421 Q256,407 278,421" fill="none" stroke="white" stroke-width="5.5" stroke-linecap="round" opacity="0.45"/>
</svg>
